<?xml version="1.0" encoding="UTF-8" standalone="no"?>
<svg width="800px" height="800px" viewBox="0 0 984 984" fill="none" xmlns="http://www.w3.org/2000/svg">
    <path d="M960.368 419.839L960.368 911.792C960.368 1047.55 850.148 1157.77 714.388 1157.77L222.431 1157.77C86.672 1157.77 -23.547 1047.55 -23.547 911.792L-23.547 419.839C-23.547 284.08 86.672 173.861 222.431 173.861L714.388 173.861C850.148 173.861 960.368 284.08 960.368 419.839ZM323.658 758.052L215.893 835.682C257.908 928.832 360.188 1002.81 485.308 1002.81C604.938 1002.81 720.928 931.57 720.928 800.98C720.928 695.04 647.868 636.591 558.368 604.627C469.778 574.489 416.808 551.658 416.808 506.908C416.808 478.597 440.558 457.592 484.388 457.592C534.618 457.592 572.978 487.73 601.288 533.393L719.098 467.638C685.308 402.797 611.338 328.823 482.568 328.823C358.358 328.823 259.728 397.317 259.728 510.561C259.728 634.764 367.498 685.91 429.598 708.74C522.748 744.36 558.368 759.88 558.368 808.28C558.368 847.55 526.398 871.3 480.738 871.3C415.898 871.3 362.018 828.38 323.658 758.052Z" stroke="#000000" stroke-width="2" stroke-linecap="round" stroke-linejoin="round"/>
</svg>