<?xml version="1.0" encoding="UTF-8" standalone="no"?><!DOCTYPE svg PUBLIC "-//W3C//DTD SVG 1.1//EN" "http://www.w3.org/Graphics/SVG/1.1/DTD/svg11.dtd"><svg width="100%" height="100%" viewBox="0 0 215 155" version="1.1" xmlns="http://www.w3.org/2000/svg" xmlns:xlink="http://www.w3.org/1999/xlink" xml:space="preserve" xmlns:serif="http://www.serif.com/" style="fill-rule:evenodd;clip-rule:evenodd;stroke-linecap:round;stroke-linejoin:round;stroke-miterlimit:1.5;"><path d="M6,83.041c16.516,-28.606 44.088,-48.542 75.552,-55.67m49.759,-0.434c32.294,6.724 60.688,26.893 77.552,56.104m-77.552,-52.784c16.814,8.674 28.32,26.215 28.32,46.422c0,20.207 -11.506,37.748 -28.32,46.422m-47.759,-0c-16.813,-8.674 -28.32,-26.215 -28.32,-46.422c-0,-20.207 11.507,-37.748 28.32,-46.422m23.88,-24.257c13.179,0 23.879,10.7 23.879,23.88c0,13.18 -10.7,23.88 -23.879,23.88c-13.18,-0 -23.88,-10.7 -23.88,-23.88c-0,-13.18 10.7,-23.88 23.88,-23.88Zm-0,94.419c13.179,0 23.879,10.701 23.879,23.88c0,13.18 -10.7,23.88 -23.879,23.88c-13.18,0 -23.88,-10.7 -23.88,-23.88c-0,-13.179 10.7,-23.88 23.88,-23.88Z" style="fill:none;stroke:#000;stroke-opacity:0.95;stroke-width:12px;"/></svg>